<svg xmlns="http://www.w3.org/2000/svg" viewBox="0 0 51.775 60.868"><defs><style>.a{fill:#843cd8;}</style></defs><path class="a" d="M150.016,32.8h.4a11.631,11.631,0,0,0,8.886-3.844c4.853-5.47,4.046-14.848,3.958-15.743-.315-6.718-3.492-9.933-6.113-11.432A14.014,14.014,0,0,0,150.369,0h-.214a14.036,14.036,0,0,0-6.781,1.727c-2.647,1.5-5.874,4.714-6.189,11.483-.088.895-.895,10.273,3.958,15.743A11.585,11.585,0,0,0,150.016,32.8ZM140.55,13.525c0-.038.013-.076.013-.1.416-9.038,6.832-10.008,9.58-10.008h.151c3.4.076,9.189,1.462,9.58,10.008a.245.245,0,0,0,.013.1c.013.088.895,8.659-3.113,13.172a8.261,8.261,0,0,1-6.491,2.7h-.126a8.234,8.234,0,0,1-6.479-2.7C139.681,22.21,140.538,13.6,140.55,13.525Z" transform="translate(-124.35)"/><path class="a" d="M87.844,274.919v-.038c0-.1-.013-.2-.013-.315-.076-2.5-.239-8.332-5.71-10.2-.038-.012-.088-.025-.126-.038a36.368,36.368,0,0,1-10.462-4.765,1.7,1.7,0,0,0-1.954,2.786,39.259,39.259,0,0,0,11.508,5.256c2.937,1.046,3.265,4.185,3.353,7.059a2.532,2.532,0,0,0,.013.315,22.879,22.879,0,0,1-.265,3.895c-2.042,1.16-10.046,5.168-22.222,5.168-12.126,0-20.18-4.021-22.235-5.18a21.659,21.659,0,0,1-.265-3.895c0-.1.013-.2.013-.315.088-2.874.416-6.013,3.353-7.059a39.629,39.629,0,0,0,11.508-5.256,1.7,1.7,0,1,0-1.954-2.786,35.974,35.974,0,0,1-10.462,4.765c-.05.013-.088.025-.126.038-5.47,1.878-5.634,7.714-5.71,10.2a2.527,2.527,0,0,1-.013.315v.038a19.33,19.33,0,0,0,.643,5.71,1.617,1.617,0,0,0,.655.794c.378.252,9.441,6.025,24.6,6.025s24.226-5.786,24.6-6.025a1.687,1.687,0,0,0,.655-.794A20.28,20.28,0,0,0,87.844,274.919Z" transform="translate(-36.073 -226.567)"/></svg>