<svg xmlns="http://www.w3.org/2000/svg" viewBox="0 0 67.4 67.4">
  <defs>
    <style>
      .cls-1 {
        fill: #843cd8;
      }
    </style>
  </defs>
  <g id="Icon_-_programming" data-name="Icon - programming" transform="translate(0)">
    <path id="Path_9" data-name="Path 9" class="cls-1" d="M64.728,13.544a15.08,15.08,0,0,0-1.593-3.832L64.4,7.187,60.214,3,57.689,4.267a15.033,15.033,0,0,0-3.833-1.593L52.964,0H47.049l-.891,2.673a15,15,0,0,0-3.833,1.593L39.8,3,35.615,7.186l1.263,2.526a15.118,15.118,0,0,0-1.593,3.832l-2.672.892v2.958H5.435A5.442,5.442,0,0,0,0,22.829V55.442a5.442,5.442,0,0,0,5.435,5.435H19.568v4.348H15.219V67.4H52.18V65.226H47.832V60.877H61.964A5.442,5.442,0,0,0,67.4,55.442V14.435ZM45.658,65.226H21.742V60.877H45.658ZM61.964,58.7H5.435a3.266,3.266,0,0,1-3.261-3.261V54.355H65.226v1.087A3.266,3.266,0,0,1,61.964,58.7Zm3.261-6.523H2.174V22.829a3.266,3.266,0,0,1,3.261-3.261H32.613v.784l2.672.891a15.08,15.08,0,0,0,1.593,3.832L35.616,27.6,39.8,31.783l2.526-1.263a15.033,15.033,0,0,0,3.833,1.593l.891,2.673h5.915l.891-2.673a15,15,0,0,0,3.833-1.593l2.526,1.263L64.4,27.6l-1.263-2.526a15.138,15.138,0,0,0,1.593-3.832l.5-.166Zm0-33.4-2.346.783-.131.6a12.949,12.949,0,0,1-1.771,4.262l-.334.521,1.11,2.218-1.967,1.967-2.219-1.11-.521.335a12.953,12.953,0,0,1-4.261,1.771l-.6.131L51.4,32.613H48.615l-.783-2.346-.6-.131a12.943,12.943,0,0,1-4.261-1.771l-.521-.335-2.219,1.11L38.26,27.172l1.11-2.218-.334-.521a12.926,12.926,0,0,1-1.771-4.262l-.131-.6-2.346-.783V16l2.346-.783.131-.6a12.949,12.949,0,0,1,1.771-4.262l.334-.521L38.26,7.614l1.967-1.967,2.219,1.11.521-.335A12.953,12.953,0,0,1,47.227,4.65l.6-.131.784-2.345H51.4L52.18,4.52l.6.131a12.943,12.943,0,0,1,4.261,1.771l.521.335,2.219-1.11,1.967,1.967-1.11,2.218.334.521a12.926,12.926,0,0,1,1.771,4.262l.131.6L65.226,16Zm0,0" transform="translate(0 0)"/>
    <path id="Path_10" data-name="Path 10" class="cls-1" d="M298.871,48a10.871,10.871,0,1,0,10.871,10.871A10.883,10.883,0,0,0,298.871,48Zm0,19.568a8.7,8.7,0,1,1,8.7-8.7A8.707,8.707,0,0,1,298.871,67.568Zm0,0" transform="translate(-248.865 -41.477)"/>
    <path id="Path_11" data-name="Path 11" class="cls-1" d="M340.348,96a4.348,4.348,0,1,0,4.348,4.348A4.353,4.353,0,0,0,340.348,96Zm0,6.523a2.174,2.174,0,1,1,2.174-2.174A2.176,2.176,0,0,1,340.348,102.523Zm0,0" transform="translate(-290.342 -82.955)"/>
    <path id="Path_12" data-name="Path 12" class="cls-1" d="M34.174,171.261v1.087A2.176,2.176,0,0,1,32,174.523V176.7a2.176,2.176,0,0,1,2.174,2.174v1.087a3.266,3.266,0,0,0,3.261,3.261h1.087v-2.174H37.435a1.088,1.088,0,0,1-1.087-1.087v-1.087a4.338,4.338,0,0,0-1.475-3.261,4.337,4.337,0,0,0,1.475-3.261v-1.087a1.089,1.089,0,0,1,1.087-1.087h1.087V168H37.435A3.266,3.266,0,0,0,34.174,171.261Zm0,0" transform="translate(-27.652 -145.171)"/>
    <path id="Path_13" data-name="Path 13" class="cls-1" d="M268.348,244.348v-1.087A3.266,3.266,0,0,0,265.087,240H264v2.174h1.087a1.089,1.089,0,0,1,1.087,1.087v1.087a4.338,4.338,0,0,0,1.475,3.261,4.338,4.338,0,0,0-1.475,3.261v1.087a1.089,1.089,0,0,1-1.087,1.087H264v2.174h1.087a3.266,3.266,0,0,0,3.261-3.261v-1.087a2.176,2.176,0,0,1,2.174-2.174v-2.174A2.176,2.176,0,0,1,268.348,244.348Zm0,0" transform="translate(-228.126 -207.387)"/>
    <path id="Path_14" data-name="Path 14" class="cls-1" d="M96,176h20.655v2.174H96Zm0,0" transform="translate(-82.955 -152.084)"/>
    <path id="Path_15" data-name="Path 15" class="cls-1" d="M128,208h16.306v2.174H128Zm0,0" transform="translate(-110.607 -179.736)"/>
    <path id="Path_16" data-name="Path 16" class="cls-1" d="M96,208h2.174v2.174H96Zm0,0" transform="translate(-82.955 -179.736)"/>
    <path id="Path_17" data-name="Path 17" class="cls-1" d="M96,240h20.655v2.174H96Zm0,0" transform="translate(-82.955 -207.387)"/>
    <path id="Path_18" data-name="Path 18" class="cls-1" d="M96,272h20.655v2.174H96Zm0,0" transform="translate(-82.955 -235.039)"/>
    <path id="Path_19" data-name="Path 19" class="cls-1" d="M232,304h2.174v2.174H232Zm0,0" transform="translate(-200.474 -262.69)"/>
    <path id="Path_20" data-name="Path 20" class="cls-1" d="M96,304h16.306v2.174H96Zm0,0" transform="translate(-82.955 -262.69)"/>
    <path id="Path_21" data-name="Path 21" class="cls-1" d="M96,336h20.655v2.174H96Zm0,0" transform="translate(-82.955 -290.342)"/>
  </g>
</svg>
