<svg xmlns="http://www.w3.org/2000/svg" viewBox="0 0 56 53.022">
  <defs>
    <style>
      .cls-1 {
        fill: #843cd8;
      }
    </style>
  </defs>
  <g id="Group_2" data-name="Group 2" transform="translate(0 0)">
    <path id="Path_7" data-name="Path 7" class="cls-1" d="M60.981,13.758a2.032,2.032,0,0,0-2.414,1.562L57.09,22.213A26.426,26.426,0,0,0,7.868,35.58a2.033,2.033,0,0,0,4.065,0,22.362,22.362,0,0,1,41.7-11.23L46.855,22.9A2.033,2.033,0,0,0,46,26.873l11.633,2.493A2.033,2.033,0,0,0,60.05,27.8l2.493-11.633A2.033,2.033,0,0,0,60.981,13.758Z" transform="translate(-6.589 -9.155)"/>
    <path id="Path_8" data-name="Path 8" class="cls-1" d="M52.347,155.264a2.033,2.033,0,0,0-1.965,2.1,22.36,22.36,0,0,1-21.609,23.086c-.249.008-.5.012-.744.012a22.356,22.356,0,0,1-19.016-10.6l7.065,1.894a2.033,2.033,0,0,0,1.053-3.927L5.641,164.748a2.033,2.033,0,0,0-2.49,1.437L.07,177.676A2.033,2.033,0,1,0,4,178.729l1.732-6.459a26.414,26.414,0,0,0,22.3,12.256c.292,0,.586,0,.879-.014a26.425,26.425,0,0,0,25.538-27.283A2.031,2.031,0,0,0,52.347,155.264Z" transform="translate(0 -131.504)"/>
  </g>
</svg>
