<svg xmlns="http://www.w3.org/2000/svg" viewBox="0 0 53.27 62.557">
  <defs>
    <style>
      .cls-1 {
        fill: #843cd8;
      }
    </style>
  </defs>
  <g id="Icon_-_shield" data-name="Icon - shield" transform="translate(0 0.001)">
    <path id="Path_22" data-name="Path 22" class="cls-1" d="M53.208,16.972l0-.049c-.027-.6-.045-1.237-.056-1.944a6.63,6.63,0,0,0-6.243-6.5c-7.192-.4-12.756-2.747-17.51-7.38l-.041-.039a4,4,0,0,0-5.441,0l-.041.039C19.121,5.738,13.557,8.083,6.365,8.485a6.63,6.63,0,0,0-6.243,6.5c-.01.7-.029,1.338-.056,1.944l0,.113C-.077,24.371-.251,33.5,2.8,41.783A31.5,31.5,0,0,0,10.36,53.555,39.535,39.535,0,0,0,25.15,62.3a4.581,4.581,0,0,0,.606.165,4.477,4.477,0,0,0,1.76,0,4.6,4.6,0,0,0,.609-.166A39.561,39.561,0,0,0,42.9,53.55a31.546,31.546,0,0,0,7.558-11.775C53.521,33.465,53.348,24.32,53.208,16.972ZM47.012,40.5c-3.221,8.732-9.795,14.729-20.1,18.332a.922.922,0,0,1-.116.032.824.824,0,0,1-.323,0,.915.915,0,0,1-.116-.031c-10.315-3.6-16.893-9.59-20.112-18.323C3.433,32.878,3.592,24.5,3.733,17.107v-.041c.029-.635.048-1.3.058-2.032A2.947,2.947,0,0,1,6.569,12.15,32.206,32.206,0,0,0,17.5,9.745,28.6,28.6,0,0,0,26.409,3.76a.338.338,0,0,1,.454,0,28.61,28.61,0,0,0,8.908,5.985A32.208,32.208,0,0,0,46.7,12.15a2.946,2.946,0,0,1,2.777,2.885c.011.735.03,1.4.059,2.031C49.679,24.466,49.835,32.852,47.012,40.5Zm0,0" transform="translate(0)"/>
    <path id="Path_23" data-name="Path 23" class="cls-1" d="M105.988,128.41A15.59,15.59,0,1,0,121.578,144,15.608,15.608,0,0,0,105.988,128.41Zm0,27.509A11.919,11.919,0,1,1,117.907,144,11.933,11.933,0,0,1,105.988,155.919Zm0,0" transform="translate(-79.353 -112.722)"/>
    <path id="Path_24" data-name="Path 24" class="cls-1" d="M166.012,212.529l-7.241,7.241-1.965-1.965a1.835,1.835,0,1,0-2.6,2.6l3.264,3.264a1.835,1.835,0,0,0,2.6,0l8.539-8.539a1.835,1.835,0,0,0-2.6-2.6Zm0,0" transform="translate(-134.897 -186.091)"/>
  </g>
</svg>
