<svg xmlns="http://www.w3.org/2000/svg" viewBox="0 0 19.097 21.896">
  <defs>
    <style>
      .cls-1 {
        fill: #fafafa;
      }
    </style>
  </defs>
  <path id="Icon_-_play" data-name="Icon - play" class="cls-1" d="M29.48,7.626a.687.687,0,1,0-.727,1.166,2.541,2.541,0,0,1,0,4.312L17.485,20.13A2.541,2.541,0,0,1,13.6,17.974V3.923a2.541,2.541,0,0,1,3.885-2.156l6.559,4.09a.687.687,0,1,0,.727-1.166L18.212.6a3.915,3.915,0,0,0-5.986,3.322V17.974A3.866,3.866,0,0,0,14.241,21.4a3.866,3.866,0,0,0,3.971-.1L29.48,14.27a3.915,3.915,0,0,0,0-6.644Z" transform="translate(-12.226)"/>
</svg>
