<svg xmlns="http://www.w3.org/2000/svg" viewBox="0 0 75.042 62.667">
  <defs>
    <style>
      .cls-1 {
        fill: #843cd8;
      }
    </style>
  </defs>
  <g id="Icon_-_house_02" data-name="Icon - house 02" transform="translate(0 -38.175)">
    <path id="Path_37" data-name="Path 37" class="cls-1" d="M73.074,62.98a1.216,1.216,0,0,0,1.968-.955V55.542a1.215,1.215,0,0,0-.463-.955L54.789,39a3.8,3.8,0,0,0-4.714,0l-7.448,5.868V42.575a1.216,1.216,0,0,0-1.216-1.216H36.224a1.216,1.216,0,0,0-1.216,1.216v8.29l-4.723,3.721a1.215,1.215,0,0,0-.463.955v6.483a1.216,1.216,0,0,0,1.968.955l.625-.493V74.333L21.077,65.4a3.8,3.8,0,0,0-4.714,0L.463,77.926A1.215,1.215,0,0,0,0,78.881v6.483a1.216,1.216,0,0,0,1.968.955l.625-.493V98.411H1.216a1.216,1.216,0,1,0,0,2.431h72.61a1.216,1.216,0,0,0,0-2.431H72.448V62.487l.625.493ZM37.44,43.791H40.2v2.988L37.44,48.95Zm-5.186,12.34L51.579,40.9a1.374,1.374,0,0,1,1.705,0L72.61,56.131v3.388L53.184,44.214a1.216,1.216,0,0,0-1.5,0L32.253,59.519ZM2.431,79.47,17.867,67.309a1.374,1.374,0,0,1,1.705,0L32.415,77.427v3.388l-12.943-10.2a1.215,1.215,0,0,0-1.5,0L2.431,82.859Zm2.593,4.44,13.7-10.79,13.7,10.79v14.5H27.067V84.067a1.216,1.216,0,0,0-1.216-1.216H11.589a1.216,1.216,0,0,0-1.216,1.216V98.411H5.024V83.91Zm7.78,6.559H24.636v2.755H12.8Zm11.832-2.431H12.8V85.283H24.636ZM12.8,95.656H24.636v2.755H12.8Zm35.171-6.317c-.027,0-.054,0-.081,0a1.216,1.216,0,0,0,0,2.431c.027,0,.054,0,.081,0v6.649H42.626V82.69h5.349Zm22.042,9.072H50.406V81.474a1.216,1.216,0,0,0-1.216-1.216h-7.78A1.216,1.216,0,0,0,40.2,81.474V98.411H34.847V60.571L52.432,46.716,70.017,60.571Z" transform="translate(0 0)"/>
    <path id="Path_38" data-name="Path 38" class="cls-1" d="M337.216,310.629H345a1.216,1.216,0,0,0,1.216-1.216V299.041A1.216,1.216,0,0,0,345,297.825h-7.78A1.216,1.216,0,0,0,336,299.041v10.373A1.216,1.216,0,0,0,337.216,310.629Zm1.216-2.431v-4.052h5.349V308.2Zm5.349-7.942v1.459h-5.349v-1.459Z" transform="translate(-281.542 -217.567)"/>
    <path id="Path_39" data-name="Path 39" class="cls-1" d="M337.216,198.629H345a1.216,1.216,0,0,0,1.216-1.216V187.041A1.216,1.216,0,0,0,345,185.825h-7.78A1.216,1.216,0,0,0,336,187.041v10.373A1.216,1.216,0,0,0,337.216,198.629Zm1.216-2.431v-4.052h5.349V196.2Zm5.349-7.942v1.459h-5.349v-1.459Z" transform="translate(-281.542 -123.719)"/>
    <path id="Path_40" data-name="Path 40" class="cls-1" d="M257,185.825h-7.78A1.216,1.216,0,0,0,248,187.041v10.373a1.216,1.216,0,0,0,1.216,1.216H257a1.216,1.216,0,0,0,1.216-1.216V187.041A1.216,1.216,0,0,0,257,185.825Zm-1.216,2.431v1.459h-5.349v-1.459Zm-5.349,7.942v-4.052h5.349V196.2Z" transform="translate(-207.805 -123.719)"/>
  </g>
</svg>
