<svg xmlns="http://www.w3.org/2000/svg" viewBox="0 0 73.33 58.664">
  <defs>
    <style>
      .cls-1 {
        fill: #843cd8;
      }
    </style>
  </defs>
  <g id="Icon_-_house_03" data-name="Icon - house 03" transform="translate(0 -51.2)">
    <g id="Group_10" data-name="Group 10" transform="translate(29.332 98.865)">
      <g id="Group_9" data-name="Group 9">
        <path id="Path_45" data-name="Path 45" class="cls-1" d="M218.245,384H206.023a1.222,1.222,0,0,0-1.222,1.222v8.555A1.222,1.222,0,0,0,206.023,395h12.222a1.221,1.221,0,0,0,1.222-1.222v-8.555A1.221,1.221,0,0,0,218.245,384Zm-1.222,8.555h-9.777v-6.111h9.777Z" transform="translate(-204.801 -384)"/>
      </g>
    </g>
    <g id="Group_12" data-name="Group 12" transform="translate(35.443 100.087)">
      <g id="Group_11" data-name="Group 11" transform="translate(0 0)">
        <rect id="Rectangle_19" data-name="Rectangle 19" class="cls-1" width="2.444" height="8.555"/>
      </g>
    </g>
    <g id="Group_14" data-name="Group 14" transform="translate(23.221 51.2)">
      <g id="Group_13" data-name="Group 13" transform="translate(0 0)">
        <path id="Path_46" data-name="Path 46" class="cls-1" d="M187.8,51.2H163.356a1.223,1.223,0,0,0-1.222,1.222v56.22a1.222,1.222,0,0,0,1.222,1.222H187.8a1.221,1.221,0,0,0,1.222-1.222V52.422A1.222,1.222,0,0,0,187.8,51.2Zm-1.222,56.22h-22V53.644h22Z" transform="translate(-162.134 -51.2)"/>
      </g>
    </g>
    <g id="Group_16" data-name="Group 16" transform="translate(13.444 56.089)">
      <g id="Group_15" data-name="Group 15">
        <path id="Path_47" data-name="Path 47" class="cls-1" d="M104.867,85.333H95.089a1.223,1.223,0,0,0-1.222,1.222v51.331a1.222,1.222,0,0,0,1.222,1.222h9.777a1.222,1.222,0,0,0,1.222-1.222V86.555A1.223,1.223,0,0,0,104.867,85.333Zm-1.222,51.331H96.311V87.777h7.333Z" transform="translate(-93.867 -85.333)"/>
      </g>
    </g>
    <g id="Group_18" data-name="Group 18" transform="translate(11 56.089)">
      <g id="Group_17" data-name="Group 17">
        <rect id="Rectangle_20" data-name="Rectangle 20" class="cls-1" width="3.667" height="2.444"/>
      </g>
    </g>
    <g id="Group_20" data-name="Group 20" transform="translate(20.777 51.2)">
      <g id="Group_19" data-name="Group 19" transform="translate(0 0)">
        <rect id="Rectangle_21" data-name="Rectangle 21" class="cls-1" width="31.777" height="2.444"/>
      </g>
    </g>
    <g id="Group_22" data-name="Group 22" transform="translate(28.11 92.754)">
      <g id="Group_21" data-name="Group 21">
        <rect id="Rectangle_22" data-name="Rectangle 22" class="cls-1" width="2.444" height="3.667"/>
      </g>
    </g>
    <g id="Group_24" data-name="Group 24" transform="translate(32.999 92.754)">
      <g id="Group_23" data-name="Group 23">
        <rect id="Rectangle_23" data-name="Rectangle 23" class="cls-1" width="2.444" height="3.667"/>
      </g>
    </g>
    <g id="Group_26" data-name="Group 26" transform="translate(37.887 92.754)">
      <g id="Group_25" data-name="Group 25">
        <rect id="Rectangle_24" data-name="Rectangle 24" class="cls-1" width="2.444" height="3.667"/>
      </g>
    </g>
    <g id="Group_28" data-name="Group 28" transform="translate(42.776 92.754)">
      <g id="Group_27" data-name="Group 27">
        <rect id="Rectangle_25" data-name="Rectangle 25" class="cls-1" width="2.444" height="3.667"/>
      </g>
    </g>
    <g id="Group_30" data-name="Group 30" transform="translate(28.11 86.643)">
      <g id="Group_29" data-name="Group 29">
        <rect id="Rectangle_26" data-name="Rectangle 26" class="cls-1" width="2.444" height="3.667"/>
      </g>
    </g>
    <g id="Group_32" data-name="Group 32" transform="translate(32.999 86.643)">
      <g id="Group_31" data-name="Group 31">
        <rect id="Rectangle_27" data-name="Rectangle 27" class="cls-1" width="2.444" height="3.667"/>
      </g>
    </g>
    <g id="Group_34" data-name="Group 34" transform="translate(37.887 86.643)">
      <g id="Group_33" data-name="Group 33">
        <rect id="Rectangle_28" data-name="Rectangle 28" class="cls-1" width="2.444" height="3.667"/>
      </g>
    </g>
    <g id="Group_36" data-name="Group 36" transform="translate(42.776 86.643)">
      <g id="Group_35" data-name="Group 35">
        <rect id="Rectangle_29" data-name="Rectangle 29" class="cls-1" width="2.444" height="3.667"/>
      </g>
    </g>
    <g id="Group_38" data-name="Group 38" transform="translate(28.11 80.532)">
      <g id="Group_37" data-name="Group 37">
        <rect id="Rectangle_30" data-name="Rectangle 30" class="cls-1" width="2.444" height="3.667"/>
      </g>
    </g>
    <g id="Group_40" data-name="Group 40" transform="translate(32.999 80.532)">
      <g id="Group_39" data-name="Group 39">
        <rect id="Rectangle_31" data-name="Rectangle 31" class="cls-1" width="2.444" height="3.667"/>
      </g>
    </g>
    <g id="Group_42" data-name="Group 42" transform="translate(37.887 80.532)">
      <g id="Group_41" data-name="Group 41">
        <rect id="Rectangle_32" data-name="Rectangle 32" class="cls-1" width="2.444" height="3.667"/>
      </g>
    </g>
    <g id="Group_44" data-name="Group 44" transform="translate(42.776 80.532)">
      <g id="Group_43" data-name="Group 43">
        <rect id="Rectangle_33" data-name="Rectangle 33" class="cls-1" width="2.444" height="3.667"/>
      </g>
    </g>
    <g id="Group_46" data-name="Group 46" transform="translate(28.11 74.421)">
      <g id="Group_45" data-name="Group 45">
        <rect id="Rectangle_34" data-name="Rectangle 34" class="cls-1" width="2.444" height="3.667"/>
      </g>
    </g>
    <g id="Group_48" data-name="Group 48" transform="translate(32.999 74.421)">
      <g id="Group_47" data-name="Group 47">
        <rect id="Rectangle_35" data-name="Rectangle 35" class="cls-1" width="2.444" height="3.667"/>
      </g>
    </g>
    <g id="Group_50" data-name="Group 50" transform="translate(37.887 74.421)">
      <g id="Group_49" data-name="Group 49">
        <rect id="Rectangle_36" data-name="Rectangle 36" class="cls-1" width="2.444" height="3.667"/>
      </g>
    </g>
    <g id="Group_52" data-name="Group 52" transform="translate(42.776 74.421)">
      <g id="Group_51" data-name="Group 51">
        <rect id="Rectangle_37" data-name="Rectangle 37" class="cls-1" width="2.444" height="3.667"/>
      </g>
    </g>
    <g id="Group_54" data-name="Group 54" transform="translate(28.11 68.31)">
      <g id="Group_53" data-name="Group 53" transform="translate(0 0)">
        <rect id="Rectangle_38" data-name="Rectangle 38" class="cls-1" width="2.444" height="3.667"/>
      </g>
    </g>
    <g id="Group_56" data-name="Group 56" transform="translate(32.999 68.31)">
      <g id="Group_55" data-name="Group 55" transform="translate(0 0)">
        <rect id="Rectangle_39" data-name="Rectangle 39" class="cls-1" width="2.444" height="3.667"/>
      </g>
    </g>
    <g id="Group_58" data-name="Group 58" transform="translate(37.887 68.31)">
      <g id="Group_57" data-name="Group 57" transform="translate(0 0)">
        <rect id="Rectangle_40" data-name="Rectangle 40" class="cls-1" width="2.444" height="3.667"/>
      </g>
    </g>
    <g id="Group_60" data-name="Group 60" transform="translate(42.776 68.31)">
      <g id="Group_59" data-name="Group 59" transform="translate(0 0)">
        <rect id="Rectangle_41" data-name="Rectangle 41" class="cls-1" width="2.444" height="3.667"/>
      </g>
    </g>
    <g id="Group_62" data-name="Group 62" transform="translate(28.11 62.2)">
      <g id="Group_61" data-name="Group 61" transform="translate(0 0)">
        <rect id="Rectangle_42" data-name="Rectangle 42" class="cls-1" width="2.444" height="3.667"/>
      </g>
    </g>
    <g id="Group_64" data-name="Group 64" transform="translate(32.999 62.2)">
      <g id="Group_63" data-name="Group 63" transform="translate(0 0)">
        <rect id="Rectangle_43" data-name="Rectangle 43" class="cls-1" width="2.444" height="3.667"/>
      </g>
    </g>
    <g id="Group_66" data-name="Group 66" transform="translate(37.887 62.2)">
      <g id="Group_65" data-name="Group 65" transform="translate(0 0)">
        <rect id="Rectangle_44" data-name="Rectangle 44" class="cls-1" width="2.444" height="3.667"/>
      </g>
    </g>
    <g id="Group_68" data-name="Group 68" transform="translate(42.776 62.2)">
      <g id="Group_67" data-name="Group 67" transform="translate(0 0)">
        <rect id="Rectangle_45" data-name="Rectangle 45" class="cls-1" width="2.444" height="3.667"/>
      </g>
    </g>
    <g id="Group_70" data-name="Group 70" transform="translate(28.11 56.089)">
      <g id="Group_69" data-name="Group 69">
        <rect id="Rectangle_46" data-name="Rectangle 46" class="cls-1" width="2.444" height="3.667"/>
      </g>
    </g>
    <g id="Group_72" data-name="Group 72" transform="translate(32.999 56.089)">
      <g id="Group_71" data-name="Group 71">
        <rect id="Rectangle_47" data-name="Rectangle 47" class="cls-1" width="2.444" height="3.667"/>
      </g>
    </g>
    <g id="Group_74" data-name="Group 74" transform="translate(37.887 56.089)">
      <g id="Group_73" data-name="Group 73">
        <rect id="Rectangle_48" data-name="Rectangle 48" class="cls-1" width="2.444" height="3.667"/>
      </g>
    </g>
    <g id="Group_76" data-name="Group 76" transform="translate(42.776 56.089)">
      <g id="Group_75" data-name="Group 75">
        <rect id="Rectangle_49" data-name="Rectangle 49" class="cls-1" width="2.444" height="3.667"/>
      </g>
    </g>
    <g id="Group_78" data-name="Group 78" transform="translate(18.333 98.865)">
      <g id="Group_77" data-name="Group 77">
        <rect id="Rectangle_50" data-name="Rectangle 50" class="cls-1" width="2.444" height="3.667"/>
      </g>
    </g>
    <g id="Group_80" data-name="Group 80" transform="translate(18.333 92.754)">
      <g id="Group_79" data-name="Group 79">
        <rect id="Rectangle_51" data-name="Rectangle 51" class="cls-1" width="2.444" height="3.667"/>
      </g>
    </g>
    <g id="Group_82" data-name="Group 82" transform="translate(18.333 86.643)">
      <g id="Group_81" data-name="Group 81">
        <rect id="Rectangle_52" data-name="Rectangle 52" class="cls-1" width="2.444" height="3.667"/>
      </g>
    </g>
    <g id="Group_84" data-name="Group 84" transform="translate(18.333 80.532)">
      <g id="Group_83" data-name="Group 83">
        <rect id="Rectangle_53" data-name="Rectangle 53" class="cls-1" width="2.444" height="3.667"/>
      </g>
    </g>
    <g id="Group_86" data-name="Group 86" transform="translate(18.333 74.421)">
      <g id="Group_85" data-name="Group 85">
        <rect id="Rectangle_54" data-name="Rectangle 54" class="cls-1" width="2.444" height="3.667"/>
      </g>
    </g>
    <g id="Group_88" data-name="Group 88" transform="translate(18.333 68.31)">
      <g id="Group_87" data-name="Group 87" transform="translate(0 0)">
        <rect id="Rectangle_55" data-name="Rectangle 55" class="cls-1" width="2.444" height="3.667"/>
      </g>
    </g>
    <g id="Group_90" data-name="Group 90" transform="translate(18.333 62.2)">
      <g id="Group_89" data-name="Group 89" transform="translate(0 0)">
        <rect id="Rectangle_56" data-name="Rectangle 56" class="cls-1" width="2.444" height="3.667"/>
      </g>
    </g>
    <g id="Group_92" data-name="Group 92" transform="translate(47.665 56.089)">
      <g id="Group_91" data-name="Group 91">
        <path id="Path_48" data-name="Path 48" class="cls-1" d="M343.8,85.333h-9.777a1.222,1.222,0,0,0-1.222,1.222v51.331a1.221,1.221,0,0,0,1.222,1.222H343.8a1.221,1.221,0,0,0,1.222-1.222V86.555A1.222,1.222,0,0,0,343.8,85.333Zm-1.222,51.331h-7.333V87.777h7.333Z" transform="translate(-332.8 -85.333)"/>
      </g>
    </g>
    <g id="Group_94" data-name="Group 94" transform="translate(58.664 56.089)">
      <g id="Group_93" data-name="Group 93">
        <rect id="Rectangle_57" data-name="Rectangle 57" class="cls-1" width="3.667" height="2.444"/>
      </g>
    </g>
    <g id="Group_96" data-name="Group 96" transform="translate(52.553 98.865)">
      <g id="Group_95" data-name="Group 95">
        <rect id="Rectangle_58" data-name="Rectangle 58" class="cls-1" width="2.444" height="3.667"/>
      </g>
    </g>
    <g id="Group_98" data-name="Group 98" transform="translate(52.553 92.754)">
      <g id="Group_97" data-name="Group 97">
        <rect id="Rectangle_59" data-name="Rectangle 59" class="cls-1" width="2.444" height="3.667"/>
      </g>
    </g>
    <g id="Group_100" data-name="Group 100" transform="translate(52.553 86.643)">
      <g id="Group_99" data-name="Group 99">
        <rect id="Rectangle_60" data-name="Rectangle 60" class="cls-1" width="2.444" height="3.667"/>
      </g>
    </g>
    <g id="Group_102" data-name="Group 102" transform="translate(52.553 80.532)">
      <g id="Group_101" data-name="Group 101">
        <rect id="Rectangle_61" data-name="Rectangle 61" class="cls-1" width="2.444" height="3.667"/>
      </g>
    </g>
    <g id="Group_104" data-name="Group 104" transform="translate(52.553 74.421)">
      <g id="Group_103" data-name="Group 103">
        <rect id="Rectangle_62" data-name="Rectangle 62" class="cls-1" width="2.444" height="3.667"/>
      </g>
    </g>
    <g id="Group_106" data-name="Group 106" transform="translate(52.553 68.31)">
      <g id="Group_105" data-name="Group 105" transform="translate(0 0)">
        <rect id="Rectangle_63" data-name="Rectangle 63" class="cls-1" width="2.444" height="3.667"/>
      </g>
    </g>
    <g id="Group_108" data-name="Group 108" transform="translate(52.553 62.2)">
      <g id="Group_107" data-name="Group 107" transform="translate(0 0)">
        <rect id="Rectangle_64" data-name="Rectangle 64" class="cls-1" width="2.444" height="3.667"/>
      </g>
    </g>
    <g id="Group_110" data-name="Group 110" transform="translate(0 107.42)">
      <g id="Group_109" data-name="Group 109" transform="translate(0 0)">
        <rect id="Rectangle_65" data-name="Rectangle 65" class="cls-1" width="14.666" height="2.444"/>
      </g>
    </g>
    <g id="Group_112" data-name="Group 112" transform="translate(58.664 107.42)">
      <g id="Group_111" data-name="Group 111" transform="translate(0 0)">
        <rect id="Rectangle_66" data-name="Rectangle 66" class="cls-1" width="14.666" height="2.444"/>
      </g>
    </g>
    <g id="Group_114" data-name="Group 114" transform="translate(4.889 82.977)">
      <g id="Group_113" data-name="Group 113">
        <rect id="Rectangle_67" data-name="Rectangle 67" class="cls-1" width="2.444" height="25.666"/>
      </g>
    </g>
    <g id="Group_116" data-name="Group 116" transform="translate(0.489 84.443)">
      <g id="Group_115" data-name="Group 115" transform="translate(0 0)">
        <rect id="Rectangle_68" data-name="Rectangle 68" class="cls-1" width="2.444" height="12.222" transform="matrix(0.6, -0.8, 0.8, 0.6, 0, 1.956)"/>
      </g>
    </g>
    <g id="Group_118" data-name="Group 118" transform="translate(0.487 84.443)">
      <g id="Group_117" data-name="Group 117" transform="translate(0 0)">
        <rect id="Rectangle_69" data-name="Rectangle 69" class="cls-1" width="12.222" height="2.444" transform="translate(0 7.336) rotate(-36.883)"/>
      </g>
    </g>
    <g id="Group_120" data-name="Group 120" transform="translate(65.997 82.977)">
      <g id="Group_119" data-name="Group 119">
        <rect id="Rectangle_70" data-name="Rectangle 70" class="cls-1" width="2.444" height="25.666"/>
      </g>
    </g>
    <g id="Group_122" data-name="Group 122" transform="translate(61.597 84.444)">
      <g id="Group_121" data-name="Group 121" transform="translate(0 0)">
        <rect id="Rectangle_71" data-name="Rectangle 71" class="cls-1" width="2.443" height="12.222" transform="matrix(0.6, -0.8, 0.8, 0.6, 0, 1.954)"/>
      </g>
    </g>
    <g id="Group_124" data-name="Group 124" transform="translate(61.591 84.45)">
      <g id="Group_123" data-name="Group 123" transform="translate(0 0)">
        <rect id="Rectangle_72" data-name="Rectangle 72" class="cls-1" width="12.221" height="2.443" transform="translate(0 7.33) rotate(-36.857)"/>
      </g>
    </g>
  </g>
</svg>
