<svg xmlns="http://www.w3.org/2000/svg" viewBox="0 0 64.765 63">
  <defs>
    <style>
      .cls-1 {
        fill: #843cd8;
      }
    </style>
  </defs>
  <g id="Icon_-_house_01" data-name="Icon - house 01" transform="translate(0 -0.818)">
    <path id="Path_41" data-name="Path 41" class="cls-1" d="M14,36.976H29.112V26.182H14Zm2.159-2.159V31.579H26.953v3.238Zm10.794-6.476V29.42H16.159V28.341Z" transform="translate(1.112 2.014)"/>
    <path id="Path_42" data-name="Path 42" class="cls-1" d="M14,40.182V53.135H29.112V40.182Zm6.476,2.159v3.238H16.159V42.341Zm-4.318,5.4h4.318v3.238H16.159Zm6.476,3.238V47.738h4.318v3.238Zm4.318-5.4H22.635V42.341h4.318Z" transform="translate(1.112 3.126)"/>
    <path id="Path_43" data-name="Path 43" class="cls-1" d="M32,36.976H47.112V26.182H32Zm2.159-2.159V33.738H44.953v1.079Zm10.794-6.476v3.238H34.159V28.341Z" transform="translate(2.541 2.014)"/>
    <path id="Path_44" data-name="Path 44" class="cls-1" d="M63.685,51.943a1.079,1.079,0,0,0-1.079,1.079V54.1H61.526V53.023a1.079,1.079,0,0,0-2.159,0V54.1H58.288V32.294a4.306,4.306,0,0,0,6.056-4.273A4.336,4.336,0,0,0,62.7,24.962L35.321,3.546,32.382.818,29.514,3.486,2.065,24.962a4.316,4.316,0,0,0-.5,6.337,4.284,4.284,0,0,0,4.915,1V54.1H5.4V53.024a1.079,1.079,0,0,0-2.159,0V54.1H2.159V53.024a1.079,1.079,0,0,0-2.159,0v9.715a1.079,1.079,0,0,0,2.159,0V61.659H3.238v1.079a1.079,1.079,0,0,0,2.159,0V61.659H6.476v2.159H58.288V61.659h1.079v1.079a1.079,1.079,0,0,0,2.159,0V61.659h1.079v1.079a1.079,1.079,0,0,0,2.159,0V53.024A1.079,1.079,0,0,0,63.685,51.943ZM3.143,29.829A2.158,2.158,0,0,1,3.4,26.662L30.914,5.128l1.469-1.365,1.537,1.424L61.37,26.662a2.157,2.157,0,0,1-2.647,3.408l-.435-.335h0L32.382,9.766,6.9,29.412h0l-.854.657A2.148,2.148,0,0,1,3.143,29.829ZM2.159,59.5V56.261H3.238V59.5Zm3.238,0V56.261H6.476V59.5Zm31.3,2.159V45.467H47.494V61.658Zm19.429,0H49.653V43.308H34.541v18.35H8.635V30.8L32.382,12.491,56.129,30.8ZM58.288,59.5V56.261h1.079V59.5Zm3.238,0V56.261h1.079V59.5Z" transform="translate(0 0)"/>
  </g>
</svg>
